Coordinates
version=1
nRows=27
nColumns=12
inDegrees=yes

Units are S.I. units (second, meters, Newtons, ...)
Angles are in degrees

endheader
time	SC_y	SC_z	SC_x	AC_y	AC_z	AC_x	GH_y	GH_z	GH_yy	EL_x	PS_y
       0.0              -27.36          0.399          29.01          55.61         -14.04          19.12         -14.45          4.921         -107.3          38.02          76.06
   0.03414              -27.37         0.3994          29.01          55.61         -14.04          19.11         -14.44          4.933         -107.2          38.02          76.06
   0.06829              -27.37         0.3999          29.01          55.61         -14.04          19.11         -14.43          4.945         -107.2          38.02          76.06
    0.1024              -27.37         0.4005          29.01           55.6         -14.04          19.11         -14.42          4.958         -107.1          38.02          76.06
    0.1366              -27.38          0.401          29.02           55.6         -14.04          19.11         -14.41          4.972         -107.1          38.01          76.06
    0.1707              -27.38         0.4016          29.02           55.6         -14.04           19.1          -14.4          4.987         -107.1          38.01          76.06
    0.2049              -27.39         0.4023          29.02           55.6         -14.04           19.1         -14.39          5.003         -107.0          38.01          76.06
     0.239              -27.39          0.403          29.02           55.6         -14.04           19.1         -14.38          5.019         -107.0           38.0          76.06
    0.2731               -27.4         0.4037          29.02           55.6         -14.04           19.1         -14.36          5.037         -106.9           38.0          76.06
    0.3073              -27.41         0.4045          29.02           55.6         -14.04          19.09         -14.35          5.057         -106.8          37.99          76.06
    0.3414              -27.41         0.4053          29.02           55.6         -14.04          19.09         -14.34          5.078         -106.8          37.99          76.06
    0.3756              -27.42         0.4063          29.02           55.6         -14.04          19.08         -14.32            5.1         -106.7          37.99          76.06
    0.4097              -27.43         0.4072          29.03           55.6         -14.04          19.08          -14.3          5.124         -106.6          37.98          76.06
    0.4439              -27.44         0.4083          29.03          55.59         -14.04          19.08         -14.28           5.15         -106.5          37.97          76.06
     0.478              -27.45         0.4094          29.03          55.59         -14.04          19.07         -14.26          5.178         -106.5          37.97          76.06
    0.5121              -27.46         0.4107          29.03          55.59         -14.04          19.07         -14.24          5.209         -106.4          37.96          76.06
    0.5463              -27.47          0.412          29.03          55.59         -14.04          19.06         -14.22          5.242         -106.3          37.96          76.06
    0.5804              -27.48         0.4135          29.04          55.59         -14.04          19.05         -14.19          5.278         -106.1          37.95          76.06
    0.6146              -27.49         0.4151          29.04          55.59         -14.03          19.05         -14.17          5.318         -106.0          37.94          76.06
    0.6487              -27.51         0.4169          29.04          55.58         -14.03          19.04         -14.14          5.361         -105.9          37.93          76.06
    0.6829              -27.52         0.4188          29.04          55.58         -14.03          19.03          -14.1          5.408         -105.7          37.92          76.06
     0.717              -27.54          0.421          29.05          55.58         -14.03          19.02         -14.07          5.461         -105.6          37.91          76.06
    0.7511              -27.56         0.4233          29.05          55.57         -14.03          19.01         -14.02          5.518         -105.4           37.9          76.06
    0.7853              -27.58         0.4259          29.06          55.57         -14.03           19.0         -13.98          5.582         -105.2          37.88          76.06
    0.8194               -27.6         0.4288          29.06          55.57         -14.03          18.99         -13.93          5.653         -105.0          37.87          76.06
    0.8536              -27.63         0.4321          29.07          55.56         -14.02          18.98         -13.87          5.733         -104.7          37.85          76.06
    0.8877              -27.66         0.4357          29.07          55.56         -14.02          18.96         -13.81          5.822         -104.4          37.83          76.06
